<?xml version="1.0" standalone="no"?>
<!DOCTYPE svg PUBLIC "-//W3C//DTD SVG 20010904//EN"
 "http://www.w3.org/TR/2001/REC-SVG-20010904/DTD/svg10.dtd">
<svg version="1.0" xmlns="http://www.w3.org/2000/svg"
 width="1000.000000pt" height="1000.000000pt" viewBox="0 0 1000.000000 1000.000000"
 preserveAspectRatio="xMidYMid meet">
<metadata>
Created by potrace 1.11, written by Peter Selinger 2001-2013
</metadata>
<g transform="translate(0.000000,1000.000000) scale(0.100000,-0.100000)"
fill="#000000" stroke="none">
<path d="M737 9984 c-337 -61 -619 -325 -709 -664 l-23 -85 0 -4235 0 -4235
23 -85 c83 -314 329 -562 647 -652 l80 -23 1981 -3 1982 -2 46 126 c86 234 81
214 241 1079 65 354 70 394 69 630 0 154 -7 280 -22 419 -12 109 -25 262 -28
340 -3 78 -19 249 -34 381 -16 132 -36 330 -45 440 -25 301 -21 282 -56 289
-53 10 -378 135 -536 206 -84 37 -287 138 -450 223 -391 204 -451 225 -918
336 -404 96 -565 155 -733 270 -166 114 -448 407 -590 614 -80 117 -177 308
-192 381 -13 62 -8 93 54 366 57 248 146 399 256 432 77 23 418 17 569 -11
384 -69 718 -195 931 -351 47 -34 173 -151 280 -259 182 -183 202 -200 295
-250 201 -109 259 -148 364 -244 58 -53 153 -136 210 -185 57 -48 135 -113
172 -145 37 -31 92 -88 121 -127 29 -38 55 -69 58 -69 3 -1 13 72 23 162 32
295 91 549 202 876 145 426 331 809 518 1070 92 127 166 211 449 508 294 308
313 322 495 363 54 12 135 34 181 48 88 26 79 26 327 6 76 -6 86 -4 205 36
l125 42 125 -5 c242 -11 432 -71 503 -160 105 -129 141 -302 142 -677 0 -267
-6 -303 -79 -470 -133 -302 -350 -551 -757 -871 -211 -165 -310 -252 -574
-505 -287 -274 -370 -364 -465 -505 -169 -251 -249 -340 -440 -489 -185 -145
-216 -182 -312 -375 -60 -119 -98 -227 -124 -345 -21 -100 -30 -349 -15 -420
64 -292 86 -447 103 -710 9 -152 9 -391 0 -1085 -7 -490 -17 -939 -22 -1000
-10 -106 -35 -300 -46 -358 l-6 -27 1954 2 1953 3 80 23 c318 90 564 338 647
652 l23 85 0 4235 0 4235 -23 85 c-83 314 -329 562 -647 652 l-80 23 -4215 2
c-3586 1 -4227 -1 -4293 -13z"/>
</g>
</svg>
