<svg id="icon" xmlns="http://www.w3.org/2000/svg" viewBox="0 0 48 48"><defs><style>.cls-1{fill:#626262;}</style></defs><circle class="cls-1" cx="16" cy="16" r="4"/><path class="cls-1" d="M44,5.33A1.34,1.34,0,0,0,42.67,4H5.33A1.34,1.34,0,0,0,4,5.33V42.67A1.34,1.34,0,0,0,5.33,44H42.67A1.34,1.34,0,0,0,44,42.67ZM41.33,6.67V23.45l-5.72-5.73a1.34,1.34,0,0,0-1.89,0L21.33,30.11l-4.39-4.39a1.33,1.33,0,0,0-1.88,0l-8.39,8.4V6.67ZM6.67,41.33V37.88L16,28.55l4.39,4.39a1.34,1.34,0,0,0,1.89,0L34.67,20.55l6.66,6.67V41.33Z"/></svg>