<svg id="icon" xmlns="http://www.w3.org/2000/svg" viewBox="0 0 48 48"><defs><style>.cls-1{fill:#626262;}</style></defs><path class="cls-1" d="M46.67,42.67H1.33A1.34,1.34,0,0,1,0,41.33V6.67A1.34,1.34,0,0,1,1.33,5.33H46.67A1.34,1.34,0,0,1,48,6.67V41.33A1.34,1.34,0,0,1,46.67,42.67ZM2.67,40H45.33V8H2.67Z"/><path class="cls-1" d="M17.33,33.33a1.38,1.38,0,0,1-.68-.18A1.35,1.35,0,0,1,16,32V16a1.35,1.35,0,0,1,.65-1.15,1.32,1.32,0,0,1,1.32,0l14.67,8a1.34,1.34,0,0,1,0,2.34L18,33.17A1.32,1.32,0,0,1,17.33,33.33Zm1.34-15.08v11.5L29.22,24Z"/></svg>