<svg width="14" height="14" viewBox="0 0 14 14" fill="none" xmlns="http://www.w3.org/2000/svg">
<path fill-rule="evenodd" clip-rule="evenodd" d="M1.16602 1.16553V12.8312H12.8317V1.16553H1.16602ZM1.94379 9.94979V1.9433H12.0539V6.83709L10.1125 4.89566L6.22167 8.78358L4.66712 7.22902L1.94379 9.94979ZM1.94379 11.0492V12.0534H12.0539V7.93703L10.1123 5.9954L6.22147 9.88331L4.66686 8.3287L1.94379 11.0492Z" fill="#999999"/>
<path d="M4.66667 5.83333C5.311 5.83333 5.83333 5.311 5.83333 4.66667C5.83333 4.02233 5.311 3.5 4.66667 3.5C4.02233 3.5 3.5 4.02233 3.5 4.66667C3.5 5.311 4.02233 5.83333 4.66667 5.83333Z" fill="#999999"/>
</svg>
