<svg id="icon" xmlns="http://www.w3.org/2000/svg" viewBox="0 0 48 48"><defs><style>.cls-1{fill:#5989f3;}</style></defs><path class="cls-1" d="M38.15,16.2a14.88,14.88,0,0,1,.47,2.85A9.33,9.33,0,0,1,36,37.33H24a9.33,9.33,0,0,1,0-18.66h6.53A6.56,6.56,0,0,0,29.32,16H24a12,12,0,0,0,0,24H36a12,12,0,0,0,2.15-23.8Z"/><path class="cls-1" d="M24,8H12A12,12,0,0,0,9.85,31.8,14.88,14.88,0,0,1,9.38,29,9.33,9.33,0,0,1,12,10.67H24a9.33,9.33,0,0,1,0,18.66H17.47A6.56,6.56,0,0,0,18.68,32H24A12,12,0,0,0,24,8Z"/></svg>