<svg width="14" height="14" viewBox="0 0 14 14" fill="none" xmlns="http://www.w3.org/2000/svg">
<path d="M2.47917 0H11.5208C12.8917 0 14 1.13675 14 2.54274V11.4573C14 12.8632 12.8917 14 11.5208 14H2.47917C1.10833 14 0 12.8632 0 11.4573V2.54274C0 1.13675 1.10833 0 2.47917 0Z" fill="#001E36"/>
<path d="M3.1499 9.81793V3.66152C3.1499 3.61964 3.1674 3.59571 3.20824 3.59571C3.3074 3.59571 3.40074 3.59571 3.5349 3.58973C3.6749 3.58375 3.82074 3.58375 3.97824 3.57776C4.13574 3.57178 4.3049 3.57178 4.48574 3.5658C4.66657 3.55981 4.84157 3.55981 5.01657 3.55981C5.4949 3.55981 5.89157 3.61964 6.21823 3.74528C6.5099 3.84699 6.77823 4.01452 6.9999 4.23588C7.18657 4.42734 7.3324 4.66067 7.42573 4.91793C7.51323 5.16922 7.5599 5.42648 7.5599 5.69571C7.5599 6.21024 7.44323 6.63503 7.2099 6.97007C6.97657 7.30511 6.6499 7.5564 6.27073 7.69998C5.87407 7.84956 5.43657 7.9034 4.95824 7.9034C4.81824 7.9034 4.7249 7.9034 4.66657 7.89742C4.60824 7.89144 4.52657 7.89144 4.41574 7.89144V9.81195C4.42157 9.85383 4.3924 9.88973 4.35157 9.89571C4.34574 9.89571 4.3399 9.89571 4.32824 9.89571H3.2199C3.17324 9.89571 3.1499 9.87178 3.1499 9.81793ZM4.42157 4.75041V6.76067C4.50324 6.76665 4.57907 6.77263 4.64907 6.77263H4.95824C5.18574 6.77263 5.41324 6.73674 5.62907 6.66494C5.81574 6.6111 5.97907 6.49742 6.1074 6.34785C6.2299 6.19828 6.28823 5.99486 6.28823 5.73161C6.29407 5.54614 6.2474 5.36067 6.15407 5.19913C6.0549 5.04358 5.9149 4.92392 5.74573 4.8581C5.5299 4.76836 5.29657 4.73246 5.0574 4.73845C4.90574 4.73845 4.77157 4.73845 4.66074 4.74443C4.54407 4.73845 4.4624 4.74443 4.42157 4.75041Z" fill="#31A8FF"/>
<path d="M11.1999 6.39584C11.0249 6.30011 10.8382 6.2343 10.6399 6.19242C10.4241 6.14456 10.2082 6.11464 9.98658 6.11464C9.86992 6.10866 9.74742 6.12661 9.63659 6.15652C9.56075 6.17447 9.49659 6.21635 9.45575 6.27618C9.42659 6.32404 9.40909 6.38387 9.40909 6.43772C9.40909 6.49156 9.43242 6.54541 9.46742 6.59327C9.51992 6.65909 9.58992 6.71293 9.66575 6.75481C9.79992 6.82661 9.93992 6.89242 10.0799 6.95225C10.3949 7.05994 10.6982 7.20951 10.9782 7.389C11.1707 7.51464 11.3282 7.68216 11.4391 7.88558C11.5324 8.07704 11.5791 8.28644 11.5732 8.50182C11.5791 8.78302 11.4974 9.06421 11.3457 9.29755C11.1824 9.53686 10.9549 9.72233 10.6924 9.83003C10.4066 9.95567 10.0566 10.0215 9.63659 10.0215C9.36825 10.0215 9.10576 9.99755 8.84326 9.9437C8.63909 9.9078 8.43492 9.84199 8.24826 9.75225C8.20743 9.72832 8.17826 9.68644 8.18409 9.63857V8.59755C8.18409 8.5796 8.18993 8.55567 8.20743 8.5437C8.22493 8.53174 8.24243 8.53772 8.25993 8.54968C8.48742 8.68729 8.72659 8.78302 8.98326 8.84285C9.20492 8.90268 9.43825 8.93259 9.67159 8.93259C9.89325 8.93259 10.0508 8.90268 10.1558 8.84883C10.2491 8.80695 10.3132 8.70524 10.3132 8.59755C10.3132 8.51379 10.2666 8.43601 10.1732 8.35823C10.0799 8.28045 9.88742 8.19071 9.60159 8.07703C9.30409 7.96934 9.02992 7.82575 8.77326 7.64627C8.59242 7.51464 8.44076 7.34114 8.32993 7.13772C8.23659 6.94627 8.18993 6.73686 8.19576 6.52746C8.19576 6.2702 8.26576 6.0249 8.39409 5.80353C8.53992 5.56421 8.75576 5.37276 9.00659 5.2531C9.28075 5.10951 9.62492 5.0437 10.0391 5.0437C10.2782 5.0437 10.5232 5.06165 10.7624 5.09755C10.9374 5.12148 11.1066 5.16934 11.2641 5.23515C11.2874 5.24114 11.3107 5.26507 11.3224 5.289C11.3282 5.31293 11.3341 5.33686 11.3341 5.36079V6.33601C11.3341 6.35994 11.3224 6.38387 11.3049 6.39584C11.2524 6.4078 11.2232 6.4078 11.1999 6.39584Z" fill="#31A8FF"/>
</svg>
