<svg width="12" height="12" viewBox="0 0 12 12" fill="none" xmlns="http://www.w3.org/2000/svg">
<path d="M2.125 0H9.875C11.05 0 12 0.974359 12 2.17949V9.82051C12 11.0256 11.05 12 9.875 12H2.125C0.95 12 0 11.0256 0 9.82051V2.17949C0 0.974359 0.95 0 2.125 0Z" fill="#001E36"/>
<path d="M2.7 8.41537V3.13845C2.7 3.10255 2.715 3.08204 2.75 3.08204C2.835 3.08204 2.915 3.08204 3.03 3.07691C3.15 3.07178 3.275 3.07178 3.41 3.06665C3.545 3.06153 3.69 3.06153 3.845 3.0564C4 3.05127 4.15 3.05127 4.3 3.05127C4.71 3.05127 5.05 3.10255 5.33 3.21024C5.58 3.29742 5.81 3.44101 6 3.63076C6.16 3.79486 6.285 3.99486 6.365 4.21537C6.44 4.43076 6.48 4.65127 6.48 4.88204C6.48 5.32306 6.38 5.68717 6.18 5.97435C5.98 6.26153 5.7 6.47691 5.375 6.59999C5.035 6.72819 4.66 6.77435 4.25 6.77435C4.13 6.77435 4.05 6.77435 4 6.76922C3.95 6.76409 3.88 6.76409 3.785 6.76409V8.41024C3.79 8.44614 3.765 8.47691 3.73 8.48204C3.725 8.48204 3.72 8.48204 3.71 8.48204H2.76C2.72 8.48204 2.7 8.46153 2.7 8.41537ZM3.79 4.07178V5.79486C3.86 5.79999 3.925 5.80512 3.985 5.80512H4.25C4.445 5.80512 4.64 5.77435 4.825 5.71281C4.985 5.66665 5.125 5.56922 5.235 5.44101C5.34 5.31281 5.39 5.13845 5.39 4.91281C5.395 4.75383 5.355 4.59486 5.275 4.4564C5.19 4.32306 5.07 4.2205 4.925 4.16409C4.74 4.08717 4.54 4.0564 4.335 4.06153C4.205 4.06153 4.09 4.06153 3.995 4.06665C3.895 4.06153 3.825 4.06665 3.79 4.07178Z" fill="#31A8FF"/>
<path d="M9.59999 5.48209C9.44999 5.40004 9.28999 5.34363 9.11999 5.30774C8.93499 5.26671 8.75 5.24107 8.56 5.24107C8.46 5.23594 8.355 5.25133 8.26 5.27697C8.195 5.29235 8.14 5.32825 8.105 5.37953C8.08 5.42056 8.065 5.47184 8.065 5.51799C8.065 5.56415 8.085 5.6103 8.115 5.65133C8.16 5.70774 8.22 5.75389 8.285 5.78979C8.4 5.85133 8.52 5.90774 8.64 5.95902C8.91 6.05133 9.16999 6.17953 9.40999 6.33338C9.57499 6.44107 9.70999 6.58466 9.80499 6.75902C9.88499 6.92312 9.92499 7.10261 9.91999 7.28722C9.92499 7.52825 9.85499 7.76927 9.72499 7.96927C9.58499 8.1744 9.38999 8.33338 9.16499 8.42568C8.91999 8.53338 8.62 8.58979 8.26 8.58979C8.03 8.58979 7.805 8.56927 7.58 8.52312C7.405 8.49235 7.23 8.43594 7.07 8.35902C7.035 8.33851 7.01 8.30261 7.015 8.26158V7.36927C7.015 7.35389 7.02 7.33338 7.035 7.32312C7.05 7.31286 7.065 7.31799 7.08 7.32825C7.275 7.4462 7.48 7.52825 7.7 7.57953C7.89 7.63081 8.09 7.65645 8.29 7.65645C8.48 7.65645 8.615 7.63081 8.705 7.58466C8.785 7.54876 8.84 7.46158 8.84 7.36927C8.84 7.29748 8.8 7.23081 8.72 7.16415C8.64 7.09748 8.475 7.02056 8.23 6.92312C7.975 6.83081 7.74 6.70774 7.52 6.55389C7.365 6.44107 7.235 6.29235 7.14 6.11799C7.06 5.95389 7.02 5.7744 7.025 5.59492C7.025 5.3744 7.085 5.16415 7.195 4.9744C7.32 4.76927 7.505 4.60517 7.72 4.50261C7.955 4.37953 8.25 4.32312 8.605 4.32312C8.81 4.32312 9.01999 4.3385 9.22499 4.36927C9.37499 4.38979 9.51999 4.43081 9.65499 4.48722C9.67499 4.49235 9.69499 4.51286 9.70499 4.53338C9.70999 4.55389 9.71499 4.5744 9.71499 4.59491V5.43081C9.71499 5.45133 9.70499 5.47184 9.68999 5.48209C9.64499 5.49235 9.61999 5.49235 9.59999 5.48209Z" fill="#31A8FF"/>
</svg>
