<svg width="14" height="14" viewBox="0 0 14 14" fill="none" xmlns="http://www.w3.org/2000/svg">
<g clip-path="url(#clip0_14274_115029)">
<path fill-rule="evenodd" clip-rule="evenodd" d="M6.98693 -0.000938868L7.00019 -0.000976562L7.01489 -0.000930197C10.8746 0.00710338 14.001 3.13846 14.001 7.00002C14.001 10.2926 11.728 13.0543 8.66557 13.8017C8.13175 13.9319 7.57396 14.001 7.00003 14.001C6.3959 14.001 5.80962 13.9245 5.2504 13.7806C2.23049 13.0036 -0.000976562 10.2624 -0.000976562 7.00002C-0.000976562 3.13785 3.12641 0.00611486 6.98693 -0.000938868ZM4.86902 2.50648C4.31487 3.55337 3.94645 4.9933 3.89522 6.61111H6.6113V0.828449C5.98779 0.993942 5.37189 1.55648 4.86902 2.50648ZM4.18161 2.14261C3.55952 3.31785 3.16844 4.88701 3.11708 6.61111H0.788783C0.943134 4.10788 2.57731 2.00504 4.82726 1.16665C4.5875 1.45443 4.37137 1.78412 4.18161 2.14261ZM4.82733 12.8334C4.58754 12.5456 4.37139 12.2159 4.18161 11.8574C3.55952 10.6821 3.16844 9.11299 3.11708 7.38889H0.78878C0.943116 9.89217 2.57733 11.995 4.82733 12.8334ZM6.6113 7.38889H3.89522C3.94645 9.0067 4.31487 10.4466 4.86902 11.4935C5.37189 12.4435 5.98779 13.006 6.6113 13.1715V7.38889ZM7.38908 13.1715V7.38889H10.1052C10.0539 9.0067 9.68551 10.4466 9.13136 11.4935C8.62849 12.4435 8.01259 13.006 7.38908 13.1715ZM9.81877 11.8574C10.4409 10.6821 10.8319 9.11299 10.8833 7.38889H13.2113C13.0569 9.89198 11.4229 11.9947 9.17321 12.8332C9.41294 12.5455 9.62903 12.2158 9.81877 11.8574ZM10.8833 6.61111H13.2113C13.0569 4.10806 11.423 2.00535 9.17327 1.16684C9.41298 1.45457 9.62905 1.7842 9.81877 2.14261C10.4409 3.31785 10.8319 4.88701 10.8833 6.61111ZM7.38908 6.61111H10.1052C10.0539 4.9933 9.68551 3.55337 9.13136 2.50648C8.62849 1.55648 8.01259 0.993942 7.38908 0.828449V6.61111Z" fill="#999999"/>
</g>
<defs>
<clipPath id="clip0_14274_115029">
<rect width="14" height="14" fill="white"/>
</clipPath>
</defs>
</svg>
