<?xml version="1.0" encoding="utf-8"?>
<!-- Generator: Adobe Illustrator 25.2.1, SVG Export Plug-In . SVG Version: 6.00 Build 0)  -->
<svg version="1.1" id="Layer_1" xmlns="http://www.w3.org/2000/svg" xmlns:xlink="http://www.w3.org/1999/xlink" x="0px" y="0px"
	 viewBox="0 0 1000 1000" style="enable-background:new 0 0 1000 1000;" xml:space="preserve">
<style type="text/css">
	.st0{fill:#FCFCFC;}
	.st1{fill:#151515;}
</style>
<path class="st0" d="M541.2,868c1.3-60.3,5-124.1-9.3-181.7c-4.9-19.9-0.7-51.2,8.5-71.5c4.7-10.4,10.5-21.9,17-30.3
	c8.3-10.6,27.1-20.2,41-36.1c23.2-26.4,20.8-34.4,46.1-58.5c21.4-20.5,51.3-50.4,74.7-67.9c35.2-26.4,67.1-56.1,83.3-97.3
	c8.6-21.9,6.3-46.7,4.2-68.6c-1.8-18.7-6.3-41.4-26.5-49.2c-10-3.8-30.3-7.4-41.9-7.3c-13.5,0.1-15.9,3.7-29.1,7.2
	c-12,3.1-23-2-35-1c-5.1,0.4-14,4.2-18.4,5.1c-24.4,4.9-29.2,5.9-47,25.8c-18.1,20.2-36.4,36.4-52.9,58.2
	c-27.2,35.9-48.1,86.7-61.2,129.3c-8.5,27.5-14.2,57.3-16.3,87.3c-7-9.9-15.1-18.6-24.5-25.8c-33.5-25.6-31.4-32.7-58.7-46.6
	c-2.7-1.4-18.6-9.9-22.6-13.5c-8.9-7.9-33-38.2-57.6-51.3c-15.9-8.5-23.7-11.8-37.4-16.1c-53.4-16.7-87.3-14.6-99.7-11.2
	c-5.3,1.1-9.4,4.6-14.8,13.1c-7.4,11.6-9.4,22.7-11.9,35.7c-1.7,9-6.6,21.5-4.4,30.7c3.8,15.9,19.3,40,29.4,51.7
	c21.3,25,40.6,45.6,63.4,56.7c40.5,19.7,87.8,18.7,131.8,41.9c28.6,15.1,55.9,30.2,86,41.7c11.5,4.4,23.9,9.2,35,12.3
	c0.3,11.2,2.1,37.7,9.7,96.4c0,0,0,0,0,0.1c0,10.6,0.3,21,1.3,31.2c2.9,30.1,7.1,57.5,2.7,88c-4.8,33-12.2,65.8-17.6,98.8
	c-3.1,19-10.2,36.7-16.6,54.8h62.6c0.6-4.3,1.2-8.6,1.9-12.8C542.4,948,540.4,907.4,541.2,868z"/>
<path class="st1" d="M909.3,0H90.7C40.6,0,0,40.6,0,90.7v818.7c0,50.1,40.6,90.7,90.7,90.7h381c6.4-18.1,13.5-35.7,16.6-54.8
	c5.4-33,12.8-65.7,17.6-98.8c4.4-30.5,0.2-57.9-2.7-88c-1-10.2-1.3-20.5-1.3-31.2c0,0,0,0,0-0.1c-7.6-58.7-9.4-85.2-9.7-96.4
	c-11.1-3-23.5-7.9-35-12.3c-30.1-11.4-57.4-26.6-86-41.7c-44-23.2-91.3-22.3-131.8-41.9c-22.8-11.1-42.1-31.7-63.4-56.7
	c-10-11.8-25.6-35.9-29.4-51.7c-2.2-9.1,2.7-21.6,4.4-30.7c2.5-13,4.5-24.1,11.9-35.7c5.4-8.5,9.5-12.1,14.8-13.1
	c12.4-3.5,46.3-5.5,99.7,11.2c13.7,4.3,21.5,7.6,37.4,16.1c24.6,13.1,48.6,43.4,57.6,51.3c4,3.6,20,12.1,22.6,13.5
	c27.3,13.9,25.3,21,58.7,46.6c9.4,7.2,17.5,15.9,24.5,25.8c2.1-30,7.8-59.8,16.3-87.3c13.1-42.6,34-93.4,61.2-129.3
	c16.5-21.8,34.9-38,53-58.2c17.8-19.9,22.5-20.9,47-25.8c4.5-0.9,13.3-4.7,18.4-5.1c11.9-0.9,23,4.2,35,1
	c13.2-3.5,15.6-7.1,29.1-7.2c11.6-0.1,31.9,3.5,41.9,7.3c20.2,7.8,24.6,30.5,26.5,49.2c2.2,21.9,4.4,46.7-4.2,68.6
	c-16.1,41.3-48.1,70.9-83.3,97.3c-23.4,17.5-53.2,47.5-74.7,67.9c-25.3,24.1-22.9,32.1-46.1,58.5c-14,15.9-32.7,25.5-41,36.1
	c-6.6,8.4-12.4,19.9-17,30.3c-9.1,20.3-13.4,51.6-8.5,71.5c14.3,57.6,10.5,121.4,9.3,181.7c-0.8,39.5,1.1,80-5.1,119.3
	c-0.7,4.1-1.3,8.4-1.9,12.8h375.1c50.1,0,90.7-40.6,90.7-90.7V90.7C1000,40.6,959.4,0,909.3,0z"/>
</svg>
