<svg width="14" height="14" viewBox="0 0 14 14" fill="inherit" xmlns="http://www.w3.org/2000/svg"> <path d="M12.7367 0H1.27484C0.573092 0 0 0.572143 0 1.27273V12.7273C0 13.4279 0.573092 14 1.27484 14H6.6081C6.70167 13.7431 6.79524 13.4979 6.84202 13.2294C6.91219 12.774 7.01746 12.3069 7.08763 11.8515C7.14611 11.4195 7.08763 11.0459 7.05254 10.6255C7.04085 10.4854 7.02915 10.3336 7.02915 10.1935C6.92389 9.37615 6.9005 9.0025 6.8888 8.83903C6.73676 8.79233 6.56132 8.73394 6.39758 8.66389C5.97653 8.50042 5.59057 8.29024 5.19292 8.08007C4.57304 7.75313 3.91808 7.7648 3.34499 7.49625C3.0292 7.34445 2.7602 7.05254 2.45611 6.70225C2.31576 6.53878 2.09354 6.20017 2.04676 5.97832C2.01167 5.84987 2.08185 5.67473 2.10524 5.54629C2.14032 5.35947 2.16372 5.20767 2.26898 5.0442C2.33915 4.92744 2.39763 4.88073 2.4795 4.85738C2.65494 4.81068 3.12277 4.77565 3.88299 5.00917C4.07012 5.06756 4.18708 5.11426 4.4093 5.23103C4.74848 5.41785 5.08766 5.8382 5.21631 5.95496C5.27479 6.00167 5.49701 6.13011 5.53209 6.14178C5.91805 6.34028 5.88297 6.43369 6.3508 6.79566C6.47945 6.90075 6.59641 7.01751 6.68997 7.15763C6.72506 6.73728 6.79524 6.31693 6.91219 5.93161C7.09933 5.33611 7.39172 4.62385 7.76598 4.12177C7.9999 3.81818 8.25721 3.58465 8.50282 3.30442C8.74843 3.02419 8.8186 3.01251 9.15778 2.94245C9.21626 2.93078 9.34491 2.87239 9.41509 2.87239C9.57883 2.86072 9.73087 2.93078 9.90631 2.88407C10.0934 2.83736 10.1285 2.77898 10.3157 2.77898C10.4794 2.77898 10.7601 2.82569 10.9004 2.88407C11.1811 2.98916 11.2513 3.3161 11.2747 3.57298C11.3098 3.87656 11.3332 4.22686 11.2162 4.53044C10.994 5.10259 10.5379 5.52294 10.0467 5.89658C9.71918 6.14178 9.29813 6.56214 9.00574 6.84237C8.65486 7.18098 8.68995 7.28607 8.36247 7.65972C8.16364 7.88157 7.90633 8.02168 7.78938 8.1618C7.69581 8.27857 7.61394 8.44203 7.55546 8.58215C7.42681 8.86239 7.36833 9.30609 7.4385 9.58632C7.63733 10.392 7.59055 11.2794 7.56716 12.1318C7.55546 12.6806 7.57885 13.2527 7.49698 13.8015C7.48529 13.8599 7.47359 13.9183 7.47359 13.9766H12.725C13.4267 13.9766 13.9998 13.4045 13.9998 12.7039V1.27273C14.0115 0.572143 13.4384 0 12.7367 0Z" fill="#2B2B2B"/> </svg>
