<svg width="70" height="70" viewBox="0 0 70 70" fill="none" xmlns="http://www.w3.org/2000/svg">
<rect width="70" height="70" rx="35" fill="#FCFCFC"/>
<path fill-rule="evenodd" clip-rule="evenodd" d="M29.9327 16C27.832 16.0015 26.132 17.7028 26.1335 19.7992C26.132 21.8955 27.8336 23.5968 29.9342 23.5984H33.7349V19.8007C33.7364 17.7044 32.0348 16.0031 29.9327 16C29.9342 16 29.9342 16 29.9327 16V16ZM29.9327 26.1332H19.8007C17.7001 26.1347 15.9985 27.836 16 29.9324C15.9969 32.0287 17.6985 33.73 19.7991 33.7331H29.9327C32.0333 33.7316 33.7349 32.0303 33.7333 29.9339C33.7349 27.836 32.0333 26.1347 29.9327 26.1332V26.1332Z" fill="#36C5F0"/>
<path fill-rule="evenodd" clip-rule="evenodd" d="M54.0026 29.9324C54.0041 27.836 52.3026 26.1347 50.202 26.1332C48.1014 26.1347 46.3998 27.836 46.4014 29.9324V33.7331H50.202C52.3026 33.7316 54.0041 32.0303 54.0026 29.9324ZM43.8692 29.9324V19.7992C43.8707 17.7044 42.1707 16.0031 40.0701 16C37.9696 16.0015 36.268 17.7028 36.2695 19.7992V29.9324C36.2664 32.0287 37.968 33.73 40.0686 33.7331C42.1692 33.7316 43.8707 32.0303 43.8692 29.9324Z" fill="#2EB67D"/>
<path fill-rule="evenodd" clip-rule="evenodd" d="M40.0701 53.9999C42.1707 53.9984 43.8723 52.2971 43.8707 50.2007C43.8723 48.1043 42.1707 46.4031 40.0701 46.4015H36.2695V50.2007C36.268 52.2955 37.9696 53.9968 40.0701 53.9999ZM40.0701 43.8651H50.2035C52.3041 43.8635 54.0057 42.1623 54.0041 40.0659C54.0072 37.9695 52.3057 36.2682 50.2051 36.2651H40.0717C37.9711 36.2667 36.2695 37.968 36.2711 40.0643C36.2695 42.1623 37.9696 43.8635 40.0701 43.8651V43.8651Z" fill="#ECB22E"/>
<path fill-rule="evenodd" clip-rule="evenodd" d="M16 40.0653C15.9984 42.1617 17.7001 43.863 19.8007 43.8645C21.9013 43.863 23.6029 42.1617 23.6013 40.0653V36.2661H19.8007C17.7001 36.2677 15.9984 37.9689 16 40.0653ZM26.1335 40.0653V50.1986C26.1304 52.295 27.832 53.9962 29.9326 53.9993C32.0333 53.9978 33.7349 52.2965 33.7333 50.2001V40.0684C33.7364 37.972 32.0348 36.2708 29.9342 36.2677C27.832 36.2677 26.132 37.9689 26.1335 40.0653C26.1335 40.0669 26.1335 40.0653 26.1335 40.0653Z" fill="#E01E5A"/>
</svg>
